<?xml version="1.0" encoding="UTF-8" standalone="no"?>
<svg
   xmlns:dc="http://purl.org/dc/elements/1.1/"
   xmlns:cc="http://creativecommons.org/ns#"
   xmlns:rdf="http://www.w3.org/1999/02/22-rdf-syntax-ns#"
   xmlns:svg="http://www.w3.org/2000/svg"
   xmlns="http://www.w3.org/2000/svg"
   viewBox="0 0 674.78668 181.8"
   height="181.8"
   width="674.78668"
   xml:space="preserve"
   id="svg2"
   version="1.1"><metadata
     id="metadata8"><rdf:RDF><cc:Work
         rdf:about=""><dc:format>image/svg+xml</dc:format><dc:type
           rdf:resource="http://purl.org/dc/dcmitype/StillImage" /></cc:Work></rdf:RDF></metadata><defs
     id="defs6" /><g
     transform="matrix(1.3333333,0,0,-1.3333333,0,181.8)"
     id="g10"><g
       transform="scale(0.1)"
       id="g12"><path
         id="path14"
         style="fill:#231f20;fill-opacity:1;fill-rule:nonzero;stroke:none"
         d="m 1946.82,181.801 v 412.711 h -71.39 V 458.477 c -12.6,15.41 -40.06,27.968 -77.79,27.968 -30.34,0 -54.36,-9.14 -72.64,-23.984 -35.41,-29.121 -53.11,-74.277 -53.11,-132.602 0,-56.007 17.13,-100.621 52.54,-129.757 18.28,-14.891 42.87,-25.18 72.62,-25.18 32.62,0 65.78,11.988 83.52,39.418 l 4.57,-32.539 z m -67.95,149.179 c 0,-42.89 -11.45,-96.101 -67.5,-96.101 -22.33,0 -37.78,10.301 -48.07,23.461 -14.86,19.43 -18.87,46.89 -18.87,72.64 0,25.739 4.01,52.614 18.87,72.067 10.29,13.144 25.74,23.437 48.07,23.437 56.05,0 67.5,-52.617 67.5,-95.504 m 404.7,-2.859 c 1.14,37.133 -4.02,70.902 -25.74,103.5 -24.59,37.129 -64.61,54.824 -108.61,54.824 -40.61,0 -72.62,-14.843 -94.88,-37.675 -28.58,-29.141 -42.86,-71.504 -42.86,-118.93 0,-48.59 16,-90.371 45.71,-118.942 23.42,-22.269 53.14,-36.546 93.75,-36.546 37.71,0 74.88,12 100.04,41.679 11.42,13.719 23.43,37.168 25.15,54.93 h -68.59 c -2.87,-10.883 -8.03,-18.91 -14.32,-25.199 -10.27,-10.293 -22.87,-14.301 -43.43,-14.301 -19.46,0 -33.74,8.578 -44.03,18.309 -14.3,13.75 -22.3,35.48 -21.74,58.371 h 198.99 c 0,6.269 0.56,19.98 0.56,19.98 m -71.48,31.981 h -128.63 c 0.56,19.449 5.15,33.179 15.45,46.363 10.29,13.73 28,22.89 49.72,22.89 20.59,0 35.45,-6.875 45.18,-17.167 11.42,-12.598 17.71,-29.766 18.28,-52.086 m 563.17,-60.262 c 0,37.558 -20,73.461 -58.26,91.176 34.25,15.41 49.67,52.578 49.67,85.761 0,34.883 -17.13,68.614 -46.82,88.028 -27.42,17.715 -61.17,22.265 -93.77,22.265 H 2464.86 V 181.801 h 161.22 c 38.89,0 76.62,3.41 108.03,27.398 29.14,22.281 41.15,54.781 41.15,90.641 m -83.4,172.348 c 0,-38.321 -28.03,-50.352 -61.21,-50.352 h -92.66 v 101.836 h 90.94 c 33.16,0 62.93,-12.578 62.93,-51.484 m 8.56,-170.649 c 0,-40.969 -37.17,-53.488 -71.49,-53.488 h -90.94 V 360.18 h 93.23 c 38.9,0 69.2,-15.379 69.2,-58.641 m 396.13,-116.328 v 52.539 c 0,0 -4.57,-1.148 -9.14,-1.148 -12.01,0 -16.58,5.16 -16.58,18.886 V 365.82 c 0,20.078 -1.16,41.211 -8.56,60.078 -17.15,44.551 -60.55,60.547 -111.46,60.547 -66.37,0 -119.48,-29.707 -123.48,-96.543 h 69.14 c 1.7,27.422 21.15,42.305 54.34,42.305 40.62,0 50.35,-18.887 50.35,-46.934 v -18.32 l -87.54,-6.293 c -56.6,-3.98 -100.57,-36.539 -100.57,-93.14 0,-48.61 36.54,-93.168 107.44,-93.168 42.33,0 76.64,20.546 90.35,44.558 2.31,-22.269 19.44,-41.68 50.28,-41.68 17.15,0 23.44,2.848 35.43,7.981 z m -95.39,114.93 c 0,-44.071 -31.47,-68.11 -76.1,-68.11 -22.3,0 -42.32,14.321 -42.32,37.207 0,24.024 21.15,37.192 42.89,38.903 l 75.53,5.73 z m 326.95,112.632 v 68.536 c -7.44,1.132 -14.86,1.718 -22.3,1.718 -34.89,0 -70.34,-14.297 -84.05,-48.554 l -6.29,44.55 h -60.52 V 181.801 h 71.95 v 149.738 c 0,48.07 26.31,84.086 76.62,84.086 8.01,0 16.58,-1.152 24.59,-2.852 M 3606.49,286.91 h -70.31 c -0.59,-10.859 -4.03,-20 -8.6,-27.422 -8.57,-13.16 -24,-22.297 -45.72,-22.297 -19.45,0 -33.73,8.571 -43.46,18.86 -17.15,18.871 -20.02,46.898 -20.02,74.929 0,28.02 2.87,56.618 20.02,75.485 9.73,10.312 24.01,18.32 43.46,18.32 21.72,0 37.15,-9.16 45.72,-22.324 4.57,-7.422 8.01,-16.563 8.6,-27.422 h 70.31 c -1.15,23.418 -9.14,46.856 -22.87,64.57 -20.57,25.704 -56.6,46.836 -101.76,46.836 -45.18,0 -82.89,-21.699 -103.46,-46.836 -22.26,-28.007 -32.56,-65.156 -32.56,-108.629 0,-43.5 10.3,-80.628 32.56,-108.64 20.57,-25.129 58.28,-46.828 103.46,-46.828 45.16,0 81.19,21.129 101.76,46.828 13.73,17.719 21.72,41.16 22.87,64.57 m 311.01,41.211 c 1.16,37.133 -4,70.902 -25.72,103.5 -24.59,37.129 -64.61,54.824 -108.63,54.824 -40.61,0 -72.6,-14.843 -94.88,-37.675 -28.56,-29.141 -42.84,-71.504 -42.84,-118.93 0,-48.59 16,-90.371 45.69,-118.942 23.42,-22.269 53.14,-36.546 93.75,-36.546 37.73,0 74.9,12 100.04,41.679 11.44,13.719 23.45,37.168 25.15,54.93 h -68.59 c -2.87,-10.883 -8.01,-18.91 -14.3,-25.199 -10.29,-10.293 -22.87,-14.301 -43.45,-14.301 -19.44,0 -33.73,8.578 -44.03,18.309 -14.29,13.75 -22.28,35.48 -21.72,58.371 h 198.97 c 0,6.269 0.56,19.98 0.56,19.98 m -71.46,31.981 h -128.63 c 0.56,19.449 5.13,33.179 15.43,46.363 10.29,13.73 28,22.89 49.74,22.89 20.59,0 35.43,-6.875 45.16,-17.167 11.44,-12.598 17.73,-29.766 18.3,-52.086 m 245.25,-177.743 v 59.961 c -3.98,0 -5.7,-0.558 -11.99,-0.558 -24.59,0 -28.59,11.418 -28.59,28.57 v 324.746 h -71.97 V 258.32 c 0,-56.539 32.55,-79.961 81.13,-79.961 14.3,0 17.15,1.129 31.42,4 m 312.09,148.032 c 0,50.351 -12.55,81.797 -34.82,109.804 -20.59,25.118 -58.89,46.25 -104.06,46.25 -45.2,0 -83.5,-21.132 -104.07,-46.25 -22.26,-28.007 -34.82,-59.453 -34.82,-109.804 0,-50.313 12.56,-81.782 34.82,-109.789 20.57,-25.114 58.87,-46.25 104.07,-46.25 45.17,0 83.47,21.136 104.06,46.25 22.27,28.007 34.82,59.476 34.82,109.789 m -72.54,0 c 0,-28.012 -4,-56.039 -21.17,-74.903 -9.7,-10.308 -25.72,-18.886 -45.17,-18.886 -19.46,0 -35.47,8.578 -45.2,18.886 -17.17,18.864 -21.15,46.891 -21.15,74.903 0,28.05 3.98,56.054 21.15,74.941 9.73,10.293 25.74,18.867 45.2,18.867 19.45,0 35.47,-8.574 45.17,-18.867 17.17,-18.887 21.17,-46.891 21.17,-74.941 m 390.41,-148.59 v 198.375 c 0,61.719 -37.1,106.269 -100.56,106.269 -34.32,0 -69.79,-14.277 -87.52,-45.683 l -5.14,38.261 h -59.96 V 181.801 h 71.39 v 121.168 c 0,25.152 -0.57,56.011 9.72,79.453 9.73,21.777 26.31,37.773 51.49,37.773 37.75,0 49.2,-21.152 49.2,-56.035 V 181.801 Z m 339.61,3.41 v 52.539 c 0,0 -4.57,-1.148 -9.14,-1.148 -12.01,0 -16.58,5.16 -16.58,18.886 V 365.82 c 0,20.078 -1.15,41.211 -8.57,60.078 -17.13,44.551 -60.53,60.547 -111.47,60.547 -66.35,0 -119.47,-29.707 -123.45,-96.543 h 69.12 c 1.72,27.422 21.17,42.305 54.33,42.305 40.63,0 50.35,-18.887 50.35,-46.934 v -18.32 l -87.52,-6.293 c -56.6,-3.98 -100.56,-36.539 -100.56,-93.14 0,-48.61 36.54,-93.168 107.42,-93.168 42.34,0 76.66,20.546 90.39,44.558 2.27,-22.269 19.4,-41.68 50.25,-41.68 17.13,0 23.42,2.848 35.43,7.981 z m -95.41,114.93 c 0,-44.071 -31.46,-68.11 -76.07,-68.11 -22.32,0 -42.34,14.321 -42.34,37.207 0,24.024 21.17,37.192 42.91,38.903 l 75.5,5.73 v -13.73" /><path
         id="path16"
         style="fill:#231f20;fill-opacity:1;fill-rule:nonzero;stroke:none"
         d="m 2013.18,756.898 -142.36,405.272 h -80.61 L 1647.83,756.898 h 74.34 l 26.29,77.754 h 161.23 L 1936,756.898 Z m -126.34,143.997 h -115.51 l 57.75,170.955 z m 250.87,269.295 h -76.54 v -73.68 h 76.54 z M 2136,715.66 v 338.47 h -71.98 V 729.391 c 0,-20.02 -12.01,-32.024 -34.31,-32.024 -10.86,0 -13.71,1.145 -34.87,3.43 v -60.543 c 13.15,-3.418 23.44,-5.137 32.6,-6.27 9.14,-1.152 17.15,-1.152 25.14,-1.152 53.14,0 83.42,31.992 83.42,82.828 m 333.88,41.238 v 297.232 h -71.4 V 896.938 c 0,-24.012 -4.57,-50.868 -21.74,-66.883 -8.58,-8.625 -20.02,-14.914 -36.62,-14.914 -37.76,0 -51.49,21.73 -51.49,56.601 v 182.388 h -71.38 V 855.738 c 0,-63.437 39.39,-106.269 102.85,-106.269 37.75,0 70.95,17.129 85.23,46.258 l 5.14,-38.829 z m 338.46,0 v 198.391 c 0,61.721 -37.12,106.271 -100.56,106.271 -34.34,0 -69.81,-14.28 -87.52,-45.7 l -5.16,38.27 h -59.98 V 756.898 h 71.41 v 121.184 c 0,25.145 -0.57,56.004 9.72,79.441 9.73,21.778 26.31,37.786 51.49,37.786 37.75,0 49.2,-21.153 49.2,-56.036 V 756.898 Z m 248.7,3.985 v 59.972 c -19.46,-2.277 -31.45,-2.863 -46.31,-2.863 -22.87,0 -33.17,9.738 -33.17,32.617 v 144.7 h 74.91 v 58.821 h -74.91 v 93.19 l -71.38,-17.73 v -75.46 h -54.32 v -58.821 h 54.32 V 844.313 c 0,-57.161 29.68,-91.418 89.68,-91.418 21.16,0 41.16,2.851 61.18,7.988 m 315.58,-0.567 v 52.539 c 0,0 -4.57,-1.14 -9.14,-1.14 -12.01,0 -16.58,5.156 -16.58,18.887 v 110.32 c 0,20.078 -1.13,41.223 -8.57,60.078 -17.13,44.56 -60.53,60.56 -111.45,60.56 -66.37,0 -119.47,-29.71 -123.48,-96.556 h 69.12 c 1.72,27.434 21.18,42.316 54.36,42.316 40.61,0 50.33,-18.898 50.33,-46.933 v -18.321 l -87.52,-6.289 c -56.6,-3.996 -100.56,-36.543 -100.56,-93.164 0,-48.605 36.54,-93.144 107.44,-93.144 42.32,0 76.64,20.547 90.37,44.539 2.26,-22.254 19.41,-41.68 50.25,-41.68 17.13,0 23.42,2.852 35.43,8 z m -95.41,114.934 c 0,-44.082 -31.46,-68.117 -76.07,-68.117 -22.33,0 -42.35,14.316 -42.35,37.207 0,24.023 21.18,37.187 42.91,38.906 l 75.51,5.723 z m 575.08,-118.352 v 200.676 c 0,61.726 -33.11,103.986 -96.54,103.986 -40.06,0 -72.09,-17.71 -89.83,-48.55 -14.84,30.28 -43.4,48.55 -85.13,48.55 -39.48,0 -68.09,-19.43 -84.67,-46.83 l -5.7,39.4 H 3431 V 756.898 h 70.82 v 162.325 c 0,37.207 18.32,80.09 58.95,80.09 36.03,0 45.76,-21.153 45.76,-57.747 V 756.898 h 70.82 v 162.364 c 0,37.168 17.73,80.051 58.36,80.051 36.03,0 45.76,-21.153 45.76,-57.747 V 756.898 Z m 332.19,146.34 c 1.13,37.117 -4.01,70.887 -25.73,103.492 -24.58,37.12 -64.6,54.83 -108.63,54.83 -40.58,0 -72.6,-14.86 -94.88,-37.7 -28.56,-29.13 -42.83,-71.481 -42.83,-118.915 0,-48.593 15.99,-90.371 45.68,-118.933 23.42,-22.278 53.15,-36.543 93.73,-36.543 37.76,0 74.9,11.992 100.06,41.679 11.45,13.711 23.46,37.157 25.16,54.903 h -68.62 c -2.85,-10.871 -7.99,-18.887 -14.27,-25.176 -10.3,-10.305 -22.88,-14.309 -43.46,-14.309 -19.44,0 -33.73,8.586 -44.02,18.313 -14.3,13.738 -22.31,35.476 -21.72,58.367 h 198.94 c 0,6.281 0.59,19.992 0.59,19.992 m -71.47,31.973 h -128.65 c 0.59,19.453 5.16,33.184 15.45,46.355 10.29,13.731 28.01,22.894 49.75,22.894 20.56,0 35.43,-6.878 45.15,-17.171 11.45,-12.598 17.74,-29.766 18.3,-52.078 m 387.62,-178.313 v 198.391 c 0,61.721 -37.13,106.271 -100.57,106.271 -34.31,0 -69.78,-14.28 -87.52,-45.7 l -5.13,38.27 h -59.98 V 756.898 h 71.4 v 121.184 c 0,25.145 -0.58,56.004 9.71,79.441 9.75,21.778 26.33,37.786 51.5,37.786 37.76,0 49.2,-21.153 49.2,-56.036 V 756.898 Z m 248.69,3.985 v 59.972 c -19.43,-2.277 -31.42,-2.863 -46.31,-2.863 -22.87,0 -33.14,9.738 -33.14,32.617 v 144.7 h 74.88 v 58.821 h -74.88 v 93.19 l -71.41,-17.73 v -75.46 h -54.31 v -58.821 h 54.31 V 844.313 c 0,-57.161 29.71,-91.418 89.69,-91.418 21.15,0 41.17,2.851 61.17,7.988" /><path
         id="path18"
         style="fill:#231f20;fill-opacity:1;fill-rule:nonzero;stroke:none"
         d="m 1121.99,1363.52 c 133.48,0 241.6,-108.16 241.6,-241.59 l -0.07,-880.45 C 1363.59,108.16 1255.47,0 1121.99,0 H 241.563 C 108.164,-0.078125 0.0390625,108.121 0,241.48 l 0.0390625,880.45 c 0,133.43 108.1249375,241.59 241.5239375,241.59 h 880.427" /><path
         id="path20"
         style="fill:#ffffff;fill-opacity:1;fill-rule:nonzero;stroke:none"
         d="M 681.719,235.488 1044.51,598.262 681.719,961.098 318.945,598.262 Z m 368.101,362.774 c 0,0 -40.56,-72.793 -165.855,-198.203 C 756.816,273.07 681.719,230.332 681.719,230.332 c 0,0 -72.754,40.449 -198.106,165.977 C 356.426,523.34 313.73,598.262 313.73,598.262 c 0,0 40.684,72.793 166.036,198.168 127.089,126.984 201.953,169.66 201.953,169.66 0,0 72.949,-40.324 198.242,-165.781 C 1006.99,673.277 1049.82,598.262 1049.82,598.262 M 681.719,235.488 1044.51,598.262 681.719,961.098 318.945,598.262 Z m 368.101,362.774 c 0,0 -40.56,-72.793 -165.855,-198.203 C 756.816,273.07 681.719,230.332 681.719,230.332 c 0,0 -72.754,40.449 -198.106,165.977 C 356.426,523.34 313.73,598.262 313.73,598.262 c 0,0 40.684,72.793 166.036,198.168 127.089,126.984 201.953,169.66 201.953,169.66 0,0 72.949,-40.324 198.242,-165.781 C 1006.99,673.277 1049.82,598.262 1049.82,598.262 m -35.29,5.176 h -33.143 v 33.339 z m -70.096,70.074 v -70.074 h -36.7 v 106.929 z m -73.438,73.515 V 603.438 h -36.738 v 180.394 z m -73.555,73.555 V 603.438 h -36.699 v 253.851 z m -73.554,73.535 V 603.438 H 687.148 V 930.797 Z M 349.16,592.949 h 33.379 v -33.437 z m 70.098,-70.117 v 70.117 h 36.816 V 486.152 Z m 73.437,-73.555 v 143.672 h 36.875 v -180.39 z m 73.575,-73.574 v 217.246 h 36.757 V 339.02 Z m 73.398,-73.422 v 290.668 h 36.895 V 265.602 Z m 47.48,290.668 h 73.575 v -91.543 h -73.575 z m 327.382,0 -253.788,-253.988 -73.594,-73.359 v 199.066 h 73.594 V 338.961 l 36.836,36.977 v 88.73 h 88.672 l 36.836,36.738 H 797.578 v 91.543 z m -665.37,10.489 217.11,217.308 v -89.012 h -88.75 l -36.68,-36.789 h 125.43 v -91.507 z m 253.867,254.046 73.536,73.313 V 731.734 h -73.536 z m 73.536,-254.046 h -73.536 v 91.507 h 73.536 z m 391.757,-5.352 c 0,8.379 6.66,14.902 14.92,14.902 8.17,0 15.04,-6.523 15.04,-14.902 0,-8.164 -6.87,-14.981 -15.04,-14.981 -8.26,0 -14.92,6.817 -14.92,14.981 m -803.007,0 c 0,8.379 6.796,14.902 14.96,14.902 8.301,0 15.02,-6.523 15.02,-14.902 0,-8.164 -6.719,-14.981 -15.02,-14.981 -8.164,0 -14.96,6.817 -14.96,14.981 M 666.895,196.719 c 0,8.16 6.757,14.863 14.96,14.863 8.321,0 14.903,-6.703 14.903,-14.863 0,-8.418 -6.582,-15 -14.903,-15 -8.203,0 -14.96,6.582 -14.96,15 M 589.57,1125.98 c -4.492,1.31 -9.043,2.06 -13.75,2.06 -20.664,0 -37.109,-12.53 -37.109,-27.71 0,-7.22 3.711,-13.84 9.57,-18.91 l -16.289,-16.19 c -10.234,9.13 -16.426,21.47 -16.426,34.96 0,28.21 26.875,50.95 60.254,50.95 8.477,0 16.797,-1.51 24.297,-4.43 10.86,12.6 28.594,20.72 48.399,20.72 12.265,0 23.711,-3.01 33.203,-8.4 9.629,5.39 21.152,8.4 33.281,8.4 19.922,0 37.539,-8.12 48.398,-20.72 7.481,2.92 15.762,4.43 24.512,4.43 33.203,0 60.176,-22.74 60.176,-50.95 0,-13.49 -6.484,-25.83 -16.582,-34.96 l -16.191,16.19 c 5.898,5.07 9.589,11.69 9.589,18.91 0,15.18 -16.601,27.71 -36.992,27.71 -4.922,0 -9.433,-0.75 -13.847,-2.06 0.683,-3.1 0.996,-6.22 0.996,-9.47 0,-10.07 -3.36,-19.56 -9.414,-27.57 l -16.602,16.68 c 2.012,3.48 2.891,7.07 2.891,10.89 0,15.51 -16.485,27.86 -36.934,27.86 -7.812,0 -15.195,-1.94 -21.191,-5.05 v -33.44 h -23.184 v 32.83 c -6.055,3.6 -13.809,5.66 -22.207,5.66 -20.313,0 -36.875,-12.35 -36.875,-27.86 0,-3.82 1.074,-7.41 2.91,-10.89 l -16.64,-16.68 c -6.036,8.01 -9.317,17.5 -9.317,27.57 0,3.25 0.293,6.37 1.074,9.47 m -20.683,-121.85 12.91,-19.458 c 29.18,13.496 63.828,22.498 99.922,22.498 36.543,0 70.996,-9.002 100.176,-22.498 l 12.871,19.458 c -32.93,15.82 -71.446,25.11 -112.637,25.11 -41.094,0 -80,-9.11 -113.242,-25.11 m 97.461,194.68 c 0,8.71 6.894,15.72 15.664,15.72 8.574,0 15.625,-7.01 15.625,-15.72 0,-8.6 -7.051,-15.58 -15.625,-15.58 -8.77,0 -15.664,6.98 -15.664,15.58 m -97.227,-175.82 c -5.84,0.59 -10.566,4.85 -13.672,11.09 4.18,5.49 9.785,8.65 15.586,8.03 5.801,-0.7 10.703,-4.91 13.692,-11.06 -4.278,-5.51 -9.864,-8.44 -15.606,-8.06 m -10.859,28.4 c -2.285,5.25 -7.793,8.54 -14.746,9.45 -3.848,-5.66 -5.098,-12.01 -2.676,-17.29 2.383,-5.23 7.695,-8.59 14.609,-9.47 3.926,5.69 5.215,11.88 2.813,17.31 m 69.785,-11.27 c -5.664,1.76 -9.356,6.79 -11.113,13.61 5.234,4.41 11.484,6.25 16.933,4.66 5.528,-1.93 9.356,-7 10.918,-13.76 -5.195,-4.37 -11.23,-6.31 -16.738,-4.51 m -15.625,-3.44 c 4.277,4 5.762,10.23 4.512,17.05 -6.543,1.88 -12.969,1.13 -17.227,-2.72 -4.414,-3.97 -5.742,-10.23 -4.512,-16.93 6.563,-2.01 12.891,-1.12 17.227,2.6 m 10.801,33.32 c -1.094,5.75 -5.664,10.05 -12.246,12.39 -5.098,-4.78 -7.559,-10.71 -6.387,-16.32 1.25,-5.64 5.918,-10 12.422,-12.34 4.961,4.7 7.48,10.59 6.211,16.27 m 170.722,-47.01 c 5.879,0.59 10.606,4.85 13.614,11.09 -4.141,5.49 -9.864,8.65 -15.664,8.03 -5.743,-0.7 -10.489,-4.91 -13.418,-11.06 4.218,-5.51 9.824,-8.44 15.468,-8.06 m 10.762,28.4 c 2.559,5.25 7.949,8.54 14.688,9.45 3.984,-5.66 5.214,-12.01 2.851,-17.29 -2.402,-5.23 -7.969,-8.59 -14.687,-9.47 -3.848,5.69 -5.235,11.88 -2.852,17.31 m -69.668,-11.27 c 5.664,1.76 9.434,6.79 11.035,13.61 -5.234,4.41 -11.386,6.25 -16.777,4.66 -5.762,-1.93 -9.453,-7 -11.172,-13.76 5.391,-4.37 11.484,-6.31 16.914,-4.51 m 15.566,-3.44 c -4.335,4 -5.742,10.23 -4.531,17.05 6.699,1.88 13.067,1.13 17.324,-2.72 4.219,-3.97 5.723,-10.23 4.395,-16.93 -6.543,-2.01 -12.871,-1.12 -17.188,2.6 M 739.844,1070 c 1.25,5.75 5.879,10.05 12.48,12.39 4.844,-4.78 7.207,-10.71 6.074,-16.32 -1.21,-5.64 -5.82,-10 -12.324,-12.34 -4.902,4.7 -7.578,10.59 -6.23,16.27 m -65.567,-25.1 c 5.059,2.81 7.735,8.74 7.95,15.53 -6.075,3.32 -12.481,3.89 -17.403,0.93 -5.058,-2.93 -7.715,-8.65 -8.008,-15.63 6.133,-3.11 12.461,-3.85 17.461,-0.83 m 15.899,0 c -4.961,2.81 -7.676,8.74 -7.949,15.53 6.074,3.32 12.343,3.89 17.519,0.93 5.02,-2.93 7.676,-8.65 7.949,-15.63 -6.132,-3.11 -12.539,-3.85 -17.519,-0.83 m -17.5,30.15 c 0,5.89 3.711,11.02 9.551,14.69 5.839,-3.67 9.628,-8.8 9.628,-14.69 0,-5.74 -3.789,-10.84 -9.628,-14.62 -5.84,3.78 -9.551,8.88 -9.551,14.62" /></g></g></svg>